# xmcd
# Copyright (C) 1995-1998 Ti Kan
#
# Track frame offsets:
#       150
#       15274
#       30947
#       45677
#       64462
#       86889
#       102897
#       120571
#       134557
#       153957
#       174071
#
# Disc length: 2508 seconds
#
# Revision: 0
# Processed by: cddbd v1.5.2PL0 Copyright (c) Steve Scherf et al.
# Submitted via: CD-Import v1.0
#
DISCID=8109ca0b
DTITLE=The Brendan Adams Group - Better Days
DYEAR=1900
DGENRE=
TTITLE0=Better Days
TTITLE1=It's Not Over Now
TTITLE2=You're The Best 
TTITLE3=No Taxi 
TTITLE4=People With No Name
TTITLE5=Sunny Days Up Ahead
TTITLE6=Life's A Dream
TTITLE7=Winter Words
TTITLE8=Sunset
TTITLE9=Littel Star
TTITLE10=Any Other Way
EXTD=
EXTT0=
EXTT1=
EXTT2=
EXTT3=
EXTT4=
EXTT5=
EXTT6=
EXTT7=
EXTT8=
EXTT9=
EXTT10=
PLAYORDER=
